<mxfile host="app.diagrams.net" modified="2024-03-31T18:05:02.297Z" agent="Mozilla/5.0 (Windows NT 10.0; Win64; x64; rv:124.0) Gecko/20100101 Firefox/124.0" etag="M-9eH1Xm0wnj2P_aDH7J" version="24.2.1" type="github">
  <diagram name="Page-1" id="b-TLKSxakqhSz4r9R6qm">
    <mxGraphModel dx="1619" dy="1248" grid="1" gridSize="10" guides="1" tooltips="1" connect="1" arrows="1" fold="1" page="0" pageScale="1" pageWidth="850" pageHeight="1100" math="0" shadow="0">
      <root>
        <mxCell id="0" />
        <mxCell id="1" parent="0" />
        <mxCell id="vCGZHYMxJ54hjTMYrUrx-10" value="Councellor" style="shape=umlActor;verticalLabelPosition=bottom;verticalAlign=top;html=1;outlineConnect=0;" vertex="1" parent="1">
          <mxGeometry x="-440" y="-420" width="30" height="60" as="geometry" />
        </mxCell>
        <mxCell id="vCGZHYMxJ54hjTMYrUrx-12" value="" style="html=1;points=[[0,0,0,0,5],[0,1,0,0,-5],[1,0,0,0,5],[1,1,0,0,-5]];perimeter=orthogonalPerimeter;outlineConnect=0;targetShapes=umlLifeline;portConstraint=eastwest;newEdgeStyle={&quot;curved&quot;:0,&quot;rounded&quot;:0};" vertex="1" parent="1">
          <mxGeometry x="-140" y="-330" width="10" height="470" as="geometry" />
        </mxCell>
        <mxCell id="vCGZHYMxJ54hjTMYrUrx-15" value="" style="html=1;points=[[0,0,0,0,5],[0,1,0,0,-5],[1,0,0,0,5],[1,1,0,0,-5]];perimeter=orthogonalPerimeter;outlineConnect=0;targetShapes=umlLifeline;portConstraint=eastwest;newEdgeStyle={&quot;curved&quot;:0,&quot;rounded&quot;:0};" vertex="1" parent="1">
          <mxGeometry x="-430" y="-330" width="10" height="470" as="geometry" />
        </mxCell>
        <mxCell id="vCGZHYMxJ54hjTMYrUrx-16" value="scheduleDefense(id)" style="html=1;verticalAlign=bottom;endArrow=block;curved=0;rounded=0;fontSize=12;startSize=8;endSize=8;" edge="1" parent="1" target="vCGZHYMxJ54hjTMYrUrx-12">
          <mxGeometry width="80" relative="1" as="geometry">
            <mxPoint x="-420" y="-300" as="sourcePoint" />
            <mxPoint x="-340" y="-300" as="targetPoint" />
            <mxPoint as="offset" />
          </mxGeometry>
        </mxCell>
        <mxCell id="vCGZHYMxJ54hjTMYrUrx-23" value="" style="rounded=0;whiteSpace=wrap;html=1;fillColor=#f5f5f5;strokeColor=#BFBFBF;fontColor=#333333;fillStyle=solid;" vertex="1" parent="1">
          <mxGeometry x="-420" y="-290" width="280" height="280" as="geometry" />
        </mxCell>
        <mxCell id="vCGZHYMxJ54hjTMYrUrx-24" value="" style="shape=manualInput;whiteSpace=wrap;html=1;rotation=-90;align=center;fillColor=#f5f5f5;fontColor=#333333;strokeColor=#666666;" vertex="1" parent="1">
          <mxGeometry x="-400" y="-310" width="30" height="70" as="geometry" />
        </mxCell>
        <mxCell id="vCGZHYMxJ54hjTMYrUrx-25" value="alt" style="text;html=1;align=center;verticalAlign=middle;whiteSpace=wrap;rounded=0;fontSize=12;" vertex="1" parent="1">
          <mxGeometry x="-410" y="-290" width="60" height="30" as="geometry" />
        </mxCell>
        <mxCell id="vCGZHYMxJ54hjTMYrUrx-26" value="[isInPerson(id)]" style="text;html=1;align=center;verticalAlign=middle;whiteSpace=wrap;rounded=0;fontSize=12;" vertex="1" parent="1">
          <mxGeometry x="-330" y="-290" width="60" height="30" as="geometry" />
        </mxCell>
        <mxCell id="vCGZHYMxJ54hjTMYrUrx-27" value="getRooms()" style="html=1;verticalAlign=bottom;endArrow=block;curved=0;rounded=0;fontSize=12;startSize=8;endSize=8;labelBackgroundColor=none;" edge="1" parent="1">
          <mxGeometry width="80" relative="1" as="geometry">
            <mxPoint x="-420" y="-220" as="sourcePoint" />
            <mxPoint x="-140" y="-220" as="targetPoint" />
          </mxGeometry>
        </mxCell>
        <mxCell id="vCGZHYMxJ54hjTMYrUrx-28" value="Rooms" style="html=1;verticalAlign=bottom;endArrow=open;dashed=1;endSize=8;curved=0;rounded=0;fontSize=12;entryX=-0.008;entryY=0.588;entryDx=0;entryDy=0;entryPerimeter=0;exitX=1;exitY=0.584;exitDx=0;exitDy=0;exitPerimeter=0;labelBackgroundColor=none;" edge="1" parent="1">
          <mxGeometry relative="1" as="geometry">
            <mxPoint x="-139.99999999999977" y="-180.0000000000001" as="sourcePoint" />
            <mxPoint x="-422.24" y="-178.7199999999999" as="targetPoint" />
          </mxGeometry>
        </mxCell>
        <mxCell id="vCGZHYMxJ54hjTMYrUrx-29" value="" style="rounded=0;whiteSpace=wrap;html=1;fillColor=#dae8fc;strokeColor=#6c8ebf;" vertex="1" parent="1">
          <mxGeometry x="-410" y="-150" width="260" height="120" as="geometry" />
        </mxCell>
        <mxCell id="vCGZHYMxJ54hjTMYrUrx-30" value="Loop" style="text;html=1;align=center;verticalAlign=middle;whiteSpace=wrap;rounded=0;fontSize=12;" vertex="1" parent="1">
          <mxGeometry x="-403" y="-153" width="60" height="30" as="geometry" />
        </mxCell>
        <mxCell id="vCGZHYMxJ54hjTMYrUrx-33" value="" style="shape=manualInput;whiteSpace=wrap;html=1;rotation=-90;align=center;fillColor=none;" vertex="1" parent="1">
          <mxGeometry x="-395" y="-165" width="30" height="60" as="geometry" />
        </mxCell>
        <mxCell id="vCGZHYMxJ54hjTMYrUrx-34" value="[!isAvailable(roomId, startDate)]" style="text;html=1;align=center;verticalAlign=middle;whiteSpace=wrap;rounded=0;fontSize=12;" vertex="1" parent="1">
          <mxGeometry x="-346" y="-150" width="176" height="30" as="geometry" />
        </mxCell>
        <mxCell id="vCGZHYMxJ54hjTMYrUrx-38" value="chooseRoom(roomId,startDate)" style="html=1;verticalAlign=bottom;endArrow=block;curved=0;rounded=0;fontSize=12;startSize=8;endSize=8;entryX=0.995;entryY=0.397;entryDx=0;entryDy=0;entryPerimeter=0;labelBackgroundColor=none;" edge="1" parent="1">
          <mxGeometry width="80" relative="1" as="geometry">
            <mxPoint x="-420" y="-88.82" as="sourcePoint" />
            <mxPoint x="-141.39999999999986" y="-91.1799999999999" as="targetPoint" />
          </mxGeometry>
        </mxCell>
        <mxCell id="vCGZHYMxJ54hjTMYrUrx-39" value="isAvailable(roomId, startDate)" style="html=1;verticalAlign=bottom;endArrow=open;dashed=1;endSize=8;curved=0;rounded=0;fontSize=12;entryX=-0.003;entryY=0.851;entryDx=0;entryDy=0;entryPerimeter=0;labelBackgroundColor=none;" edge="1" parent="1" target="vCGZHYMxJ54hjTMYrUrx-29">
          <mxGeometry relative="1" as="geometry">
            <mxPoint x="-140" y="-50" as="sourcePoint" />
            <mxPoint x="-220" y="-50" as="targetPoint" />
          </mxGeometry>
        </mxCell>
        <mxCell id="vCGZHYMxJ54hjTMYrUrx-40" value=":System" style="html=1;whiteSpace=wrap;" vertex="1" parent="1">
          <mxGeometry x="-180" y="-380" width="110" height="50" as="geometry" />
        </mxCell>
        <mxCell id="vCGZHYMxJ54hjTMYrUrx-45" value="" style="rounded=0;whiteSpace=wrap;html=1;fillColor=#F5F5F5;strokeColor=#2B2B2B;fontColor=#333333;fillStyle=solid;" vertex="1" parent="1">
          <mxGeometry x="-420" width="280" height="100" as="geometry" />
        </mxCell>
        <mxCell id="vCGZHYMxJ54hjTMYrUrx-46" value="" style="shape=manualInput;whiteSpace=wrap;html=1;rotation=-90;align=center;fillColor=#f5f5f5;fontColor=#333333;strokeColor=#666666;" vertex="1" parent="1">
          <mxGeometry x="-400" y="-20" width="30" height="70" as="geometry" />
        </mxCell>
        <mxCell id="vCGZHYMxJ54hjTMYrUrx-47" value="else" style="text;html=1;align=center;verticalAlign=middle;whiteSpace=wrap;rounded=0;fontSize=12;" vertex="1" parent="1">
          <mxGeometry x="-410" width="60" height="30" as="geometry" />
        </mxCell>
        <mxCell id="vCGZHYMxJ54hjTMYrUrx-48" value="scheduleDate(startDate)" style="html=1;verticalAlign=bottom;endArrow=block;curved=0;rounded=0;fontSize=12;startSize=8;endSize=8;labelBackgroundColor=none;" edge="1" parent="1">
          <mxGeometry width="80" relative="1" as="geometry">
            <mxPoint x="-420" y="50" as="sourcePoint" />
            <mxPoint x="-140" y="50" as="targetPoint" />
          </mxGeometry>
        </mxCell>
      </root>
    </mxGraphModel>
  </diagram>
</mxfile>
